<svg width="80" height="80" viewBox="0 0 80 80" fill="none" xmlns="http://www.w3.org/2000/svg">
<circle cx="40" cy="40" r="40" fill="#3C2A80"/>
<path d="M65.3125 40.0338C65.3125 45.2313 65.3125 50.4372 65.3125 55.6347C65.3125 57.7863 64.1903 58.9169 62.0388 58.9169C59.9378 58.9169 57.8369 58.9169 55.7359 58.9169C53.9219 58.9169 52.7069 57.7103 52.7069 55.8794C52.7069 45.2903 52.7069 34.7097 52.7069 24.1206C52.7069 22.2897 53.9219 21.0916 55.7359 21.0831C57.9213 21.0831 60.0981 21.0831 62.2834 21.0831C64.0975 21.0831 65.3125 22.2897 65.3125 24.1206C65.3125 29.4278 65.3125 34.7266 65.3125 40.0338ZM59.0097 24.8884C60.0897 24.8884 61.1697 24.8884 62.2497 24.8884C62.7053 24.8884 63.1019 24.8041 63.0934 24.2556C63.085 23.7409 62.7053 23.6566 62.275 23.6566C60.0897 23.6566 57.9128 23.6566 55.7275 23.6566C55.2972 23.6566 54.9259 23.7494 54.9175 24.2641C54.9175 24.7703 55.2634 24.8884 55.7022 24.8884C56.7991 24.8884 57.9044 24.8884 59.0097 24.8884ZM59.0688 26.9725C57.9466 26.9725 56.8244 26.9725 55.7022 26.9725C55.2634 26.9725 54.9091 27.0906 54.9175 27.5969C54.9175 28.0694 55.2466 28.1959 55.6684 28.1959C57.8875 28.1959 60.115 28.1959 62.3341 28.1959C62.7559 28.1959 63.085 28.0694 63.085 27.5969C63.085 27.0906 62.7475 26.9641 62.3003 26.9641C61.2203 26.9641 60.1403 26.9641 59.0603 26.9641L59.0688 26.9725ZM58.9422 56.3519C60.0644 56.3519 61.1866 56.3519 62.3088 56.3519C62.7475 56.3519 63.1019 56.2338 63.0934 55.7191C63.0934 55.2466 62.7644 55.12 62.3425 55.12C60.1234 55.12 57.8959 55.12 55.6769 55.12C55.255 55.12 54.9259 55.2466 54.9259 55.7191C54.9259 56.2253 55.2634 56.3519 55.7106 56.3519C56.7906 56.3519 57.8706 56.3519 58.9506 56.3519H58.9422ZM58.9759 31.5034C60.0728 31.5034 61.1697 31.5034 62.2666 31.5034C62.7138 31.5034 63.0597 31.3684 63.085 30.8875C63.1103 30.3813 62.7306 30.2716 62.3003 30.2716C60.1066 30.2716 57.9044 30.2716 55.7106 30.2716C55.2719 30.2716 54.9006 30.3813 54.9259 30.8875C54.9513 31.36 55.2972 31.5034 55.7444 31.5034C56.8244 31.495 57.8959 31.5034 58.9759 31.5034ZM59.0181 48.64C57.8959 48.64 56.7822 48.64 55.66 48.64C55.2381 48.64 54.9091 48.775 54.9259 49.2475C54.9428 49.6863 55.2466 49.8719 55.6769 49.8634C57.8959 49.8634 60.1066 49.8634 62.3256 49.8634C62.7813 49.8634 63.1019 49.6778 63.0934 49.1969C63.085 48.7244 62.7222 48.6316 62.3172 48.6316C61.2203 48.6316 60.1234 48.6316 59.0266 48.6316L59.0181 48.64ZM59.0434 51.8209C57.9634 51.8209 56.8834 51.8209 55.8034 51.8209C55.3394 51.8209 54.9428 51.9306 54.9344 52.4453C54.9175 53.0022 55.3563 53.0528 55.795 53.0528C57.9381 53.0528 60.0813 53.0528 62.2244 53.0528C62.6631 53.0528 63.1019 53.0106 63.0934 52.4538C63.0934 51.9306 62.6884 51.8209 62.2328 51.8209C61.1697 51.8294 60.115 51.8209 59.0519 51.8209H59.0434Z" fill="#F7F4FF"/>
<path d="M39.9662 27.6391C38.0341 26.5591 36.1862 25.5213 34.3384 24.4919C34.1444 24.3822 33.9503 24.2725 33.7562 24.1629C33.4441 23.9941 33.1066 23.8929 32.9041 24.2641C32.71 24.6269 32.7691 24.9475 33.1909 25.1754C34.2287 25.7491 35.2412 26.3566 36.2622 26.9472C37.2156 27.4957 38.1606 28.061 39.1225 28.5925C39.3419 28.7107 39.6203 28.7275 39.9662 28.8119C39.9662 30.0269 39.9662 31.36 39.9578 32.7016C39.9578 32.8704 39.8481 33.0475 39.7553 33.1994C35.2159 41.0969 30.6681 48.9944 26.1203 56.8835C25.1584 58.5541 23.7241 58.9591 22.0366 58.0141C20.0622 56.9088 18.0962 55.7866 16.1472 54.6475C14.7044 53.8038 14.2656 52.1838 15.1009 50.741C20.4587 41.4766 25.825 32.2207 31.1912 22.9732C31.9928 21.5894 33.6044 21.1591 35.0725 21.9522C36.6081 22.7875 38.1184 23.6819 39.6287 24.5763C39.7806 24.6691 39.9409 24.9054 39.9494 25.0825C39.9831 25.8925 39.9662 26.711 39.9662 27.6307V27.6391ZM26.0359 52.4285C25.9684 52.3441 25.8503 52.1247 25.6647 52.015C23.7241 50.8675 21.7666 49.7369 19.8091 48.6147C19.4378 48.4038 19.0328 48.2941 18.7712 48.8004C18.5097 49.2897 18.8725 49.5175 19.2016 49.7116C20.2647 50.3444 21.3447 50.9604 22.4162 51.5847C23.26 52.0741 24.0953 52.5719 24.9559 53.0444C25.4959 53.3397 26.0612 53.0866 26.0359 52.4369V52.4285ZM23.7916 56.0566C23.9772 55.9216 24.2725 55.8035 24.3316 55.6179C24.3906 55.4322 24.2219 55.1538 24.1206 54.9429C24.07 54.85 23.9266 54.7994 23.8253 54.7404C21.9606 53.6604 20.0875 52.5804 18.2312 51.4919C17.8094 51.2472 17.3622 51.1629 17.1175 51.6185C16.8812 52.0572 17.2272 52.3694 17.6069 52.5888C19.4547 53.6604 21.3025 54.7319 23.1503 55.795C23.3191 55.8963 23.5131 55.9385 23.7916 56.0482V56.0566ZM30.1956 29.6641C29.7147 29.6388 29.3856 30.1282 29.5966 30.5247C29.7231 30.7525 29.9594 30.955 30.1956 31.09C32.035 32.1363 33.8912 33.1572 35.7306 34.2035C36.1019 34.4144 36.4731 34.5747 36.7431 34.1613C37.03 33.7141 36.7431 33.4357 36.3297 33.1994C34.4059 32.1025 32.4906 30.9804 30.5669 29.875C30.4319 29.7907 30.2884 29.7232 30.1872 29.6725L30.1956 29.6641ZM27.6644 49.585C27.5631 49.4922 27.4112 49.2813 27.2003 49.1632C25.2681 48.0325 23.3275 46.9188 21.3953 45.7797C21.0325 45.5604 20.7034 45.4591 20.4503 45.8557C20.1887 46.2607 20.3744 46.6319 20.7372 46.8429C22.7537 47.9904 24.7703 49.1294 26.8037 50.2516C27.2172 50.4794 27.6559 50.1925 27.6559 49.5766L27.6644 49.585ZM38.4897 30.7863C38.3716 30.6935 38.2028 30.4994 37.9919 30.3813C36.0344 29.2507 34.0684 28.1369 32.0941 27.0232C31.6469 26.77 31.2419 26.8966 31.1997 27.386C31.1828 27.6054 31.4191 27.9344 31.63 28.061C33.6128 29.2254 35.6125 30.3644 37.6122 31.5035C37.9919 31.7229 38.4897 31.3938 38.4897 30.7863Z" fill="#F7F4FF"/>
<path d="M51.475 58.9084C48.91 58.9084 46.4463 58.9422 43.9741 58.9C42.4806 58.8747 41.2572 57.5753 41.1897 56.0819C41.1897 55.9216 41.1897 55.7528 41.1897 55.5925C41.1897 45.2059 41.1897 34.8278 41.1897 24.4412C41.1897 22.2559 42.3625 21.0916 44.5563 21.0916C46.6403 21.0916 48.7159 21.1 50.8 21.0916C51.2641 21.0916 51.4834 21.1675 51.4834 21.7244C51.4666 33.9672 51.475 46.2016 51.475 58.4444V58.9169V58.9084ZM46.3028 24.88C47.4081 24.88 48.505 24.88 49.6103 24.88C50.0491 24.88 50.4709 24.8378 50.4794 24.2809C50.4878 23.7241 50.0828 23.6566 49.6356 23.6566C47.4334 23.6566 45.2313 23.6566 43.0291 23.6566C42.5734 23.6566 42.1769 23.7325 42.1853 24.2894C42.1938 24.8041 42.5734 24.8884 43.0038 24.8884C44.1006 24.8884 45.2059 24.8884 46.3113 24.8884L46.3028 24.88ZM46.3788 26.9641C45.2397 26.9641 44.0922 26.9641 42.9531 26.9641C42.5059 26.9641 42.1684 27.0991 42.1853 27.6053C42.2022 28.0778 42.5397 28.1875 42.9531 28.1875C45.1975 28.1875 47.4419 28.1875 49.6863 28.1875C50.125 28.1875 50.4878 28.0862 50.4878 27.5716C50.4878 27.0569 50.125 26.9556 49.6863 26.9556C48.5894 26.9556 47.4841 26.9556 46.3788 26.9556V26.9641ZM46.3956 55.12C45.2566 55.12 44.1091 55.12 42.97 55.12C42.5313 55.12 42.1769 55.2381 42.1853 55.7528C42.1853 56.2253 42.5228 56.3519 42.9363 56.3519C45.1975 56.3519 47.4672 56.3519 49.7284 56.3519C50.1503 56.3519 50.4794 56.2253 50.4794 55.7528C50.4794 55.2466 50.1419 55.12 49.6947 55.12C48.5978 55.12 47.4925 55.12 46.3872 55.12H46.3956ZM46.3366 30.2716C45.2144 30.2716 44.1006 30.2716 42.9784 30.2716C42.5397 30.2716 42.1684 30.3812 42.1938 30.8875C42.2191 31.36 42.565 31.5034 43.0122 31.5034C45.2313 31.5034 47.4419 31.5034 49.6609 31.5034C50.1081 31.5034 50.4541 31.3684 50.4794 30.8875C50.5047 30.3812 50.125 30.2716 49.6947 30.2716C48.5725 30.2716 47.4588 30.2716 46.3366 30.2716ZM46.3281 48.6316C45.2313 48.6316 44.1344 48.6316 43.0375 48.6316C42.6156 48.6316 42.2106 48.6822 42.2022 49.1969C42.1938 49.7116 42.5566 49.8634 43.0291 49.8634C45.2481 49.8634 47.4588 49.8634 49.6778 49.8634C50.125 49.8634 50.4709 49.72 50.4878 49.2391C50.5047 48.7244 50.125 48.6316 49.6947 48.6316C48.5725 48.6316 47.4588 48.6316 46.3366 48.6316H46.3281ZM46.3366 53.0359C47.4588 53.0359 48.5809 53.0359 49.7031 53.0359C50.1166 53.0359 50.4709 52.9347 50.4794 52.4622C50.4794 51.9812 50.1588 51.8041 49.7031 51.8041C47.4588 51.8041 45.2144 51.8041 42.97 51.8041C42.5144 51.8041 42.1853 51.9812 42.1938 52.4622C42.1938 52.9347 42.5566 53.0359 42.97 53.0359C44.0922 53.0359 45.2144 53.0359 46.3366 53.0359Z" fill="#F7F4FF"/>
</svg>
