<svg width="40" height="40" viewBox="0 0 40 40" fill="none" xmlns="http://www.w3.org/2000/svg">
<path d="M20 3.33337C10.8 3.33337 3.33334 10.8 3.33334 20C3.33334 29.2 10.8 36.6667 20 36.6667C29.2 36.6667 36.6667 29.2 36.6667 20C36.6667 10.8 29.2 3.33337 20 3.33337ZM20 33.3334C12.65 33.3334 6.66668 27.35 6.66668 20C6.66668 12.65 12.65 6.66671 20 6.66671C27.35 6.66671 33.3333 12.65 33.3333 20C33.3333 27.35 27.35 33.3334 20 33.3334ZM27.65 12.6334L16.6667 23.6167L12.35 19.3167L10 21.6667L16.6667 28.3334L30 15L27.65 12.6334Z" fill="#7C03E5"/>
</svg>
