<svg width="54" height="55" viewBox="0 0 54 55" fill="none" xmlns="http://www.w3.org/2000/svg">
<path fill-rule="evenodd" clip-rule="evenodd" d="M40.3066 4.94087C27.8543 -2.40957 11.7833 1.74117 4.44089 14.1934C-2.90956 26.6456 1.23313 42.7006 13.6854 50.0591C26.1376 57.4095 42.2087 53.2668 49.551 40.8146C56.9015 28.3624 52.7588 12.2913 40.3066 4.94893V4.94087ZM17.3767 41.4352H11.9042V12.6782H17.3767V41.4352ZM25.5815 41.4352H20.109V25.9283H25.5815V41.4352ZM19.9719 23.7039C19.9719 23.7039 27.1773 21.7615 27.8946 16.2567L25.114 14.274L32.1663 12.6862L33.5364 19.4161L30.4898 17.8283C30.4898 17.8283 28.5072 23.72 19.9639 23.72L19.9719 23.7039ZM33.7943 41.4352H28.3218V22.4788H33.7943V41.4352ZM41.9991 41.4352H36.5266V18.9003H41.9991V41.4352Z" fill="white"/>
</svg>
