<svg width="54" height="55" viewBox="0 0 54 55" fill="none" xmlns="http://www.w3.org/2000/svg">
<path d="M27 1.30603C12.5328 1.30603 0.805969 13.0329 0.805969 27.5001C0.805969 41.9672 12.5328 53.6941 27 53.6941C41.4672 53.6941 53.194 41.9672 53.194 27.5001C53.194 13.0329 41.4672 1.30603 27 1.30603ZM31.1749 20.5042C31.731 19.8756 32.3113 19.263 32.8836 18.6505C32.9803 18.5457 32.9964 18.4893 32.9319 18.3523C31.9325 16.3938 33.0367 14.0242 35.1806 13.5971C37.5824 13.1135 39.5409 15.201 39.0976 17.4738C38.7349 19.3195 36.9537 20.4639 35.1081 20.069C35.0275 20.0448 34.8904 20.0932 34.826 20.1496C34.0603 20.9636 33.3027 21.7857 32.5531 22.6078C32.1099 23.0833 31.594 23.3493 30.9412 23.3493H23.4699C22.8976 23.3493 22.5752 23.0027 22.5672 22.4305V21.7938C22.5752 21.2699 22.9137 20.9233 23.4376 20.9233H30.2319C30.6107 20.9233 30.917 20.7863 31.1749 20.5042ZM28.4588 40.1699C28.0639 40.3553 27.6448 40.5084 27.2499 40.6777C25.9119 41.258 25.1382 42.2816 24.8722 43.7081C24.7755 44.1917 24.4451 44.506 23.9454 44.506C23.0024 44.5141 22.0513 44.5141 21.1164 44.506C20.6409 44.506 20.2782 44.2078 20.2137 43.7404C19.9478 42.201 19.0531 41.1532 17.6024 40.589C17.0704 40.3795 16.5224 40.1619 15.9743 39.9765C15.0152 39.6622 14.0964 39.8717 13.226 40.2989C13.0084 40.4036 12.823 40.5648 12.5973 40.6696C12.2346 40.8308 11.8397 40.863 11.4851 40.5084C11.0096 40.0329 10.534 39.5574 10.0585 39.0819C9.88119 38.9045 9.71194 38.7433 9.53463 38.5741C9.15582 38.1792 9.13164 37.7359 9.45403 37.2765C10.2519 36.1159 10.4051 34.8505 9.89731 33.5448C9.66358 32.9404 9.42179 32.3278 9.10746 31.7556C8.49493 30.6675 7.52776 30.0389 6.30269 29.8293C5.87552 29.7487 5.61761 29.5069 5.54507 29.0717C5.5209 28.9186 5.5209 28.7735 5.5209 28.6284V26.2024C5.5209 25.5657 5.8191 25.2595 6.44776 25.1466C7.47134 24.9613 8.31761 24.4535 8.88179 23.5911C9.49433 22.6642 9.94567 21.6326 10.131 20.5284C10.3084 19.521 10.0343 18.578 9.44597 17.7478C9.12358 17.2804 9.13164 16.8532 9.52657 16.4502C10.1633 15.7893 10.8161 15.1365 11.477 14.4998C11.8719 14.1048 12.291 14.1048 12.7504 14.4192C13.9916 15.2654 15.3054 15.3783 16.6836 14.798C17.1833 14.5884 17.691 14.403 18.1666 14.1451C19.303 13.5326 19.9881 12.5574 20.2057 11.2759C20.2863 10.8084 20.6006 10.5021 21.0681 10.5021C22.0433 10.4941 23.0185 10.4941 23.9937 10.5021C24.4693 10.5102 24.7916 10.8165 24.8722 11.292C25.0899 12.6138 25.7991 13.589 26.9839 14.2016C27.4513 14.4433 27.943 14.6045 28.4185 14.8141C28.894 15.0236 29.1358 15.4024 29.1358 15.9263V17.1111C29.1358 17.7478 28.7731 18.1105 28.1284 18.1186H25.1382V18.0944C24.1549 18.0944 23.1555 18.0702 22.1722 18.0944C18.1666 18.2072 14.5478 21.0442 13.4839 24.8726C12.4039 28.7493 13.766 32.7469 16.9737 35.0923C18.6179 36.2851 20.4636 36.9057 22.5188 36.9057C24.4128 36.9057 26.2907 36.8977 28.1767 36.8816C28.757 36.8816 29.1358 37.2523 29.1358 37.8326V39.0819C29.1278 39.5654 28.894 39.9442 28.4427 40.1619L28.4588 40.1699ZM38.6785 37.9777C38.4609 39.4123 37.5905 40.3553 36.1881 40.6938C34.1087 41.1935 32.3113 39.6863 32.1421 37.8165C32.0857 37.1636 32.1985 36.5511 32.4806 35.9708C32.5128 35.8983 32.5048 35.7613 32.4564 35.7129C32.0373 35.2293 31.6101 34.7377 31.183 34.2621C30.9734 34.0284 30.7075 33.9478 30.4093 33.9478H23.623C22.8896 33.9478 22.5913 33.6496 22.5913 32.9242V32.4004C22.5994 31.8523 22.9379 31.5219 23.494 31.5219H27.3546C28.5636 31.5219 29.7564 31.5299 30.9654 31.5219C31.6746 31.5138 32.2388 31.7798 32.7063 32.2956C33.2543 32.9242 33.8185 33.5368 34.3666 34.1493C34.4633 34.2541 34.56 34.2863 34.689 34.2541C35.6078 34.0204 36.4782 34.1977 37.2439 34.7216C38.4045 35.4953 38.9122 36.6156 38.6946 37.9696L38.6785 37.9777ZM45.5373 26.6457C44.2397 26.823 42.8615 26.0977 42.2409 24.8807C42.1281 24.6469 41.9991 24.5663 41.7331 24.5663C40.3066 24.5744 38.8881 24.5744 37.4615 24.5663C37.1149 24.5663 36.8248 24.6792 36.583 24.929C35.5594 25.9607 34.5278 26.9842 33.5122 28.0159C33.0448 28.4833 32.5048 28.709 31.8439 28.701C29.9982 28.6929 28.1525 28.701 26.3069 28.701H20.6248C19.9961 28.701 19.6737 28.3786 19.6737 27.7419V27.1535C19.6818 26.6457 19.9961 26.2911 20.5119 26.2589C20.5925 26.2508 20.6731 26.2589 20.7457 26.2589H31.2072C31.6263 26.2589 31.9406 26.1299 32.2307 25.8317C33.2382 24.8081 34.2618 23.8007 35.2693 22.7771C35.7125 22.3338 36.2203 22.1162 36.849 22.1242C38.5093 22.1323 40.1696 22.1242 41.8218 22.1323C42.0152 22.1323 42.1119 22.0598 42.1925 21.8986C42.797 20.7299 43.7722 20.1013 45.094 20.0287C46.5125 19.9481 47.9149 21.0039 48.334 22.358C48.9385 24.2923 47.6409 26.3636 45.5534 26.6377L45.5373 26.6457Z" fill="white"/>
<path d="M35.4466 35.9224C34.5842 35.9224 33.8588 36.6397 33.8588 37.4859C33.8588 38.3322 34.5761 39.0415 35.4224 39.0415C36.2687 39.0415 36.9779 38.3564 36.9779 37.5021C36.986 36.6316 36.2929 35.9224 35.4466 35.9224Z" fill="white"/>
<path d="M35.8737 18.3845C36.7361 18.3845 37.4293 17.6752 37.4293 16.8209C37.4212 15.9585 36.72 15.2654 35.8737 15.2654C35.0275 15.2654 34.3102 15.9746 34.3102 16.8209C34.286 17.6833 35.0033 18.4006 35.8737 18.3845Z" fill="white"/>
<path d="M45.1666 21.7776C44.3042 21.7776 43.603 22.4707 43.603 23.3331C43.603 24.1955 44.3122 24.9128 45.1666 24.9128C46.0209 24.9128 46.7221 24.2036 46.7221 23.3492C46.7221 22.4949 46.0128 21.7856 45.1666 21.7856V21.7776Z" fill="white"/>
</svg>
