<svg width="80" height="80" viewBox="0 0 80 80" fill="none" xmlns="http://www.w3.org/2000/svg">
<circle cx="40" cy="40" r="40" fill="#3C2A80"/>
<path d="M61.0769 36.1019C58.5878 37.2916 56.2422 38.4138 53.8965 39.536C50.184 41.3078 46.4462 43.0291 42.7759 44.8853C39.9915 46.2944 37.2578 46.1088 34.5662 44.8516C29.3265 42.4047 24.1375 39.8735 18.9231 37.376C18.1975 37.03 17.4465 36.7263 16.7631 36.3128C16.2569 36.0091 15.7759 35.621 15.4047 35.1738C14.9237 34.5916 15.0587 33.9166 15.6494 33.4441C15.835 33.2922 16.0544 33.1741 16.2737 33.0644C22.6609 30.0016 29.0397 26.905 35.4606 23.8928C37.84 22.7791 40.27 23.2178 42.5903 24.2219C44.3622 24.9813 46.075 25.8672 47.8131 26.7025C51.8631 28.6432 55.9131 30.5669 59.9547 32.5328C60.5875 32.8366 61.3215 33.1741 61.6928 33.7141C62.3931 34.735 63.1187 35.8066 63.1019 37.165C63.0765 39.19 63.085 41.2066 63.1019 43.2316C63.1019 43.4341 63.2031 43.7378 63.355 43.8222C64.6037 44.531 65.0847 45.5941 64.8653 46.9778C64.6797 48.176 64.2325 49.2897 63.4394 50.2263C62.604 51.205 61.6506 51.2303 60.8237 50.26C59.8703 49.1463 59.3556 47.8132 59.3134 46.3535C59.2881 45.2144 59.8534 44.3453 60.8912 43.8391C61.1865 43.6957 61.3047 43.5522 61.3047 43.2147C61.2878 41.1897 61.3047 39.1732 61.2878 37.1482C61.2878 36.8275 61.1781 36.5069 61.1022 36.1019H61.0769Z" fill="#F7F4FF"/>
<path d="M22.7031 41.1897C24.2219 41.9153 25.6394 42.5903 27.0484 43.2738C29.3434 44.3706 31.6216 45.5013 33.9334 46.5559C36.2031 47.5938 38.5909 47.9734 41.0463 47.4419C41.9238 47.2478 42.7759 46.8513 43.6028 46.4631C47.02 44.8516 50.4203 43.2147 53.8291 41.5863C53.9978 41.5103 54.1666 41.4344 54.4113 41.3247V41.9322C54.4113 45.1384 54.4113 48.3363 54.4113 51.5425C54.4113 52.9938 53.9134 53.7194 52.5634 54.2088C43.2231 57.6259 33.8912 57.6259 24.5509 54.2088C23.1925 53.7109 22.7031 52.9853 22.7031 51.5425C22.7031 48.3194 22.7031 45.1047 22.7031 41.8816C22.7031 41.6959 22.7031 41.5103 22.7031 41.2066V41.1897Z" fill="#F7F4FF"/>
</svg>
