<svg width="54" height="55" viewBox="0 0 54 55" fill="none" xmlns="http://www.w3.org/2000/svg">
<path fill-rule="evenodd" clip-rule="evenodd" d="M15.0878 23.0913C14.9185 23.0994 14.7412 23.0994 14.5719 23.0833C13.5322 27.7337 11.8881 32.368 10.534 36.9379C13.4597 37.083 16.3612 37.1555 19.303 37.2361C17.8039 32.6421 15.9098 27.9674 15.0152 23.2364C15.0152 23.18 15.0394 23.1316 15.0878 23.0994V23.0913Z" fill="white"/>
<path fill-rule="evenodd" clip-rule="evenodd" d="M40.3146 4.94085C27.8543 -2.4096 11.7913 1.73309 4.4409 14.1934C-2.90955 26.6537 1.22508 42.7086 13.6854 50.0591C26.1457 57.4095 42.2006 53.2749 49.551 40.8146C56.9015 28.3704 52.7507 12.2994 40.3066 4.94891L40.3146 4.94085ZM43.6675 33.851C40.903 35.0519 37.8806 36.2931 34.8099 35.7692C33.6573 35.5758 30.6188 34.6489 30.651 33.0611C30.5221 32.9322 30.5624 32.6985 30.7397 32.642C31.2555 32.497 31.7794 32.4002 32.3033 32.3599C33.7863 27.6773 34.9227 22.7608 36.6555 18.1507C36.3009 17.9653 36.0027 17.6913 35.8012 17.3367C33.3188 17.7397 30.8445 18.1749 28.3621 18.6504C28.3379 18.6988 28.3299 18.7391 28.3137 18.7874C28.0397 19.3113 27.6125 19.6659 27.1451 19.8835C27.3305 26.3313 27.137 32.8113 26.9275 39.2268C28.8618 39.3074 30.7316 40.2907 32.4161 41.3626C32.9158 41.685 32.7466 42.5394 32.0937 42.5313C29.4421 42.4829 26.7824 42.4507 24.1308 42.3862C23.1958 42.362 20.657 42.7086 19.6818 42.0316C19.3513 42.1605 19.0854 41.7898 19.3191 41.5158C19.3433 41.4835 19.3755 41.4432 19.4078 41.411C19.44 41.3385 19.4884 41.2982 19.5448 41.2659C20.7699 39.9361 22.7606 39.3558 24.84 39.3074C25.0254 32.8274 24.9206 26.3474 24.8884 19.8755C24.6788 19.7868 24.4854 19.6579 24.3081 19.5208C21.8176 20.1173 19.2788 20.8104 16.74 21.302C16.6916 22.1 16.1355 22.8817 15.3215 23.0752C15.2893 23.0832 15.249 23.0832 15.2167 23.0832C15.2409 23.0913 15.2651 23.1074 15.2731 23.1316C17.4815 27.5644 18.8033 32.5937 20.4475 37.2683H20.5522C21.2051 36.9862 21.7531 38.0017 21.1003 38.437C18.7146 39.9925 15.9421 40.8388 13.089 40.5405C11.4206 40.3713 8.44657 39.5653 7.89045 37.6391C7.72926 37.5665 7.64866 37.4134 7.64866 37.2603V37.228C7.64866 37.0023 7.80985 36.7847 8.06777 36.7928C8.51105 36.825 8.94627 36.8492 9.39762 36.8734C10.6308 32.1988 11.88 27.2017 13.8305 22.7447C13.5 22.5029 13.2502 22.1886 13.1131 21.7937C12.1863 21.8743 11.2513 21.9065 10.3245 21.8743C9.8409 21.8501 9.86508 21.2134 10.3245 21.157C11.2513 21.0441 12.1782 20.9071 13.089 20.754C13.3388 19.8513 14.4188 18.8761 15.2812 19.4483C15.7164 19.5773 16.1275 19.8352 16.3934 20.1656C18.7952 19.6982 21.197 19.1582 23.5907 18.6101C23.5343 18.4811 23.4779 18.3603 23.4296 18.2232C23.1475 17.1916 23.486 15.9504 24.4128 15.354C24.5579 15.2653 24.7191 15.1847 24.8964 15.1364V12.9522C24.9045 11.7191 26.7018 11.7513 26.7905 12.9522C26.8469 13.6614 26.8791 14.3707 26.9275 15.08C27.8624 15.4426 28.5394 16.4259 28.5958 17.4817C30.9009 16.982 33.2221 16.5065 35.5675 16.1438C35.6561 15.5071 36.0591 14.9107 36.6313 14.7737C37.4454 14.2014 38.7833 14.6125 39.2749 15.4265C39.3233 15.5071 39.3475 15.5716 39.3797 15.6522C40.5887 15.5394 41.8057 15.4426 43.0227 15.4104C43.4579 15.4023 43.5707 16.1197 43.1275 16.1841C41.9024 16.3776 40.6934 16.5629 39.4684 16.7403C39.3233 17.3931 38.8639 17.9653 38.211 18.2232C38.0821 18.2716 37.9612 18.3038 37.8484 18.328C39.3475 23.0026 40.7499 27.6853 42.386 32.3035C42.7406 32.3277 43.0952 32.3519 43.4579 32.3922C43.8125 32.4405 43.9576 32.771 43.8931 33.0208C44.0221 33.3191 43.9818 33.6817 43.6675 33.8349V33.851Z" fill="white"/>
<path fill-rule="evenodd" clip-rule="evenodd" d="M33.4155 32.2713C34.5278 32.2391 35.6481 32.2955 36.7281 32.2713C38.203 32.2472 39.6779 32.2149 41.1528 32.2633C39.5973 27.9916 38.2272 23.6072 37.3245 19.1421C36.3493 23.5749 34.7615 27.9675 33.4155 32.2713Z" fill="white"/>
</svg>
