<svg width="55" height="55" viewBox="0 0 55 55" fill="none" xmlns="http://www.w3.org/2000/svg">
<path fill-rule="evenodd" clip-rule="evenodd" d="M14.9833 23.3009C15.3057 23.4862 15.894 23.5668 16.3534 23.6958C19.5692 24.5904 22.8576 25.5173 25.9687 26.4038C26.0251 25.1949 26.0412 23.9537 26.0976 22.7528C22.9785 21.7856 19.6257 20.6492 16.4824 19.6176C16.031 19.4644 15.3621 19.1823 15.0236 19.2226C13.6776 19.3919 14.1934 22.8415 14.9913 23.3009H14.9833Z" fill="white"/>
<path fill-rule="evenodd" clip-rule="evenodd" d="M14.1773 30.611C12.9764 30.5868 13.2021 33.4399 13.6615 34.2298C14.0322 34.8504 14.7012 34.8504 15.491 35.0841C18.6263 35.9949 22.0194 36.9379 25.074 37.7922C25.0821 36.5591 25.1627 35.3823 25.1627 34.1411C22.0678 33.1659 18.7472 32.0537 15.5797 31.0462C15.0961 30.885 14.5803 30.6191 14.1773 30.6191V30.611Z" fill="white"/>
<path fill-rule="evenodd" clip-rule="evenodd" d="M28.4188 32.0698C28.4107 30.8528 28.3382 29.7002 28.3302 28.4913C23.8167 27.5725 19.3275 26.6295 14.7979 25.7188C15.1687 26.4683 15.2493 27.7659 15.0639 28.7814C19.5451 29.8373 23.9376 31.0059 28.4188 32.0779V32.0698Z" fill="white"/>
<path fill-rule="evenodd" clip-rule="evenodd" d="M40.2263 20.0045C35.7209 20.9394 31.2317 21.8824 26.694 22.7771C26.694 24.0102 26.6134 25.1708 26.5893 26.3959C31.0463 25.2756 35.5033 24.1714 39.9603 23.0672C39.7669 22.0436 39.9039 20.6815 40.2263 20.0045Z" fill="white"/>
<path fill-rule="evenodd" clip-rule="evenodd" d="M27.5 1.30603C13.0409 1.30603 1.30597 13.041 1.30597 27.5001C1.30597 41.9592 13.0409 53.6941 27.5 53.6941C41.9591 53.6941 53.694 41.9753 53.694 27.5001C53.694 13.0248 41.9591 1.30603 27.5 1.30603ZM41.129 24.3084C42.2251 25.735 41.8866 29.1362 40.4761 29.9502C40.7904 30.0792 41.3063 30.0308 41.3304 30.4096C41.3546 30.8448 40.7179 30.9496 40.3875 31.1269C39.5331 31.5863 39.509 32.9484 39.6057 34.1574C39.8394 34.2702 40.4036 34.4233 40.8146 34.5845C41.0645 34.6732 41.8302 34.9069 41.7899 35.2051C41.7657 35.4147 41.0967 35.4953 40.8146 35.5598C35.8982 36.7365 31.0866 37.9454 26.1137 39.1141C25.7349 39.2027 25.3561 39.3801 25.066 39.3801C24.6952 39.372 24.0907 39.0819 23.6233 38.9207C20.754 37.9616 18.0299 37.0911 15.1525 36.1804C14.677 36.0272 14.1531 35.9144 13.7501 35.721C12.114 34.9472 11.7675 31.2559 13.1618 29.8293C12.8394 29.7729 12.4687 29.7568 12.3075 29.5311C12.6863 28.8783 13.7501 28.8138 14.4916 28.4833C14.5481 27.3308 14.5964 25.9929 13.8146 25.4932C13.46 25.2595 12.7185 25.195 12.7669 24.7114C12.8233 24.2198 13.863 24.3326 14.2257 24.0586C12.8555 22.5836 12.6701 18.586 14.8785 17.9896C15.4991 17.8204 16.2567 17.8042 16.966 17.6995C21.6648 17.0224 26.9681 16.3535 31.6024 15.6765C31.6749 15.6684 31.6749 15.6201 31.7636 15.6442C34.7134 16.5308 37.9212 17.506 41.0564 18.441C41.4594 18.5699 42.1928 18.7311 42.2331 18.9971C42.3057 19.5048 41.6206 19.5854 41.2579 19.7466C40.5245 20.2302 40.3633 21.5762 40.5406 22.7771C40.8952 22.9302 41.274 23.043 41.7173 23.2042C42.0075 23.309 42.7409 23.5186 42.6925 23.8248C42.6603 24.1956 41.4272 24.1714 41.137 24.3326L41.129 24.3084Z" fill="white"/>
<path fill-rule="evenodd" clip-rule="evenodd" d="M29.0394 33.706C27.9594 33.4964 26.8875 34.0848 25.7833 34.1654C25.7591 35.3824 25.6946 36.551 25.6946 37.7842C30.1517 36.6639 34.6087 35.5597 39.0657 34.4555C38.8481 33.44 38.9931 32.0376 39.3317 31.3928C35.9224 32.1988 32.1908 32.6582 29.0475 33.706H29.0394Z" fill="white"/>
<path fill-rule="evenodd" clip-rule="evenodd" d="M39.5976 24.9693C36.1642 26.1702 32.4325 27.2502 28.9346 28.4592C28.9346 29.6923 29.0152 30.8529 29.0394 32.078C32.1827 31.1914 35.5113 30.3048 38.6546 29.4102C39.114 29.2812 39.6943 29.2007 40.0248 29.0153C40.4761 28.7654 40.7582 27.8869 40.8066 27.0568C40.863 26.0171 40.6534 24.6066 39.5976 24.9693Z" fill="white"/>
</svg>
