<svg width="20" height="29" viewBox="0 0 20 29" fill="none" xmlns="http://www.w3.org/2000/svg">
<path d="M9.91667 13.4583C8.97736 13.4583 8.07652 13.0852 7.41233 12.421C6.74814 11.7568 6.375 10.856 6.375 9.91667C6.375 8.97736 6.74814 8.07652 7.41233 7.41233C8.07652 6.74814 8.97736 6.375 9.91667 6.375C10.856 6.375 11.7568 6.74814 12.421 7.41233C13.0852 8.07652 13.4583 8.97736 13.4583 9.91667C13.4583 10.3818 13.3667 10.8423 13.1887 11.272C13.0108 11.7017 12.7499 12.0921 12.421 12.421C12.0921 12.7499 11.7017 13.0108 11.272 13.1887C10.8423 13.3667 10.3818 13.4583 9.91667 13.4583ZM9.91667 0C7.2866 0 4.76426 1.04479 2.90452 2.90452C1.04479 4.76426 0 7.2866 0 9.91667C0 17.3542 9.91667 28.3333 9.91667 28.3333C9.91667 28.3333 19.8333 17.3542 19.8333 9.91667C19.8333 7.2866 18.7885 4.76426 16.9288 2.90452C15.0691 1.04479 12.5467 0 9.91667 0Z" fill="#7C03E5"/>
</svg>
