<svg width="55" height="55" viewBox="0 0 55 55" fill="none" xmlns="http://www.w3.org/2000/svg">
<path fill-rule="evenodd" clip-rule="evenodd" d="M40.8066 4.94093C28.3624 -2.40952 12.2913 1.74123 4.94089 14.1854C-2.40956 26.6457 1.73313 42.7006 14.1854 50.0511C26.6457 57.4015 42.7006 53.2588 50.051 40.8066C57.4015 28.3544 53.2588 12.2914 40.8066 4.94093ZM33.2063 40.9517C32.8758 40.9194 31.4815 40.3472 31.014 40.1779L15.5716 34.512C15.5152 35.8579 15.7973 38.0582 15.217 39.0818C14.7173 39.9765 13.4358 40.863 11.9125 40.3391C10.486 39.8475 10.0749 38.7191 10.0749 37.357C10.0749 35.9305 10.1878 33.8672 10.0507 32.5132C9.83313 32.3278 8.30179 31.8039 7.91492 31.675V23.3412C10.083 22.5756 12.1221 21.7857 14.2821 20.9959L33.2224 14.0484V40.9517H33.2063ZM38.2275 36.2771C37.2764 36.4221 36.3495 35.5356 36.8654 34.6168C37.0104 34.3669 37.3893 33.9881 37.6069 33.7141C40.0731 30.5224 40.3149 26.2024 38.4209 22.5594C37.4376 20.6815 36.3979 20.4478 36.8089 19.4242C36.9782 19.0212 37.2522 18.9003 37.7439 18.7633C38.2355 18.6263 38.5901 18.8197 38.8722 19.1179C39.5251 19.7788 40.3794 21.2215 40.7824 22.0436C42.9746 26.5893 42.209 31.6588 39.106 35.6C38.9206 35.8418 38.6627 36.2045 38.2275 36.2771ZM45.723 34.0123C45.2797 35.0439 43.4501 38.5741 42.2009 38.7917C41.1048 38.977 39.7669 37.8648 40.4197 36.6881L41.3546 35.5436C41.6528 35.1648 41.9107 34.7538 42.1687 34.3347C43.1842 32.6179 43.9821 30.3693 44.0466 27.9594C44.1352 24.6227 42.9343 21.0523 40.7904 18.7794C40.4681 18.4329 40.1134 18.0057 40.323 17.2562C40.4036 16.9741 40.5728 16.7726 40.7421 16.6356C41.0484 16.3857 41.1048 16.4502 41.4272 16.3293C42.0639 16.0875 42.6603 16.2809 42.9827 16.6517C45.4893 19.4887 46.9158 23.0994 47.077 27.0487C47.1657 29.4908 46.6176 31.9893 45.731 34.0123H45.723Z" fill="white"/>
</svg>
