<svg width="54" height="55" viewBox="0 0 54 55" fill="none" xmlns="http://www.w3.org/2000/svg">
<path fill-rule="evenodd" clip-rule="evenodd" d="M27 1.30603C12.5731 1.30603 0.805969 13.0732 0.805969 27.5001C0.805969 41.9269 12.5731 53.6941 27 53.6941C41.4269 53.6941 53.194 41.9269 53.194 27.5001C53.194 13.0732 41.4269 1.30603 27 1.30603ZM45.0376 25.3078C44.2397 30.2323 37.9048 36.2287 32.8191 41.0565C31.449 42.3541 30.0546 43.6678 29.2084 44.6027C29.1116 44.7075 28.1525 45.7956 27.0806 45.7956C26.0087 45.7956 25.0254 44.7156 24.9206 44.6027C24.1227 43.7323 22.8734 42.5717 21.4469 41.2257L21.334 41.121C18.4164 38.3645 15.0878 35.2454 12.6134 32.1505H17.1107C17.8684 32.1505 18.497 31.5541 18.5373 30.8126L18.6985 28.2254L22.0352 38.3807C22.2367 38.961 22.7767 39.372 23.3973 39.372H23.4457C24.0824 39.3478 24.6224 38.9045 24.7836 38.292L26.9113 29.8454L27.806 33.2627C27.9027 33.6254 28.1284 33.9236 28.4427 34.1251C29.1197 34.5442 29.9982 34.3266 30.4093 33.6577L32.5693 30.1356L33.206 30.7159C33.4719 30.9577 33.8105 31.0866 34.1731 31.0866H37.4937C38.2836 31.0625 38.8961 30.4016 38.88 29.6198C38.8639 28.838 38.1949 28.2174 37.4131 28.2335H34.7293L33.2221 26.8472C33.1496 26.7908 33.0851 26.7344 33.0045 26.686C32.3275 26.283 31.457 26.4845 31.0379 27.1616L29.7161 29.3135L28.2654 23.7604C28.1042 23.1317 27.5319 22.6884 26.8791 22.6884H26.871C26.2182 22.6884 25.654 23.1398 25.4848 23.7684L23.2119 32.8195L19.1096 20.2947C18.9322 19.7224 18.4164 19.3275 17.82 19.2953C17.0301 19.263 16.3531 19.8675 16.3209 20.6574L15.7728 29.3216H10.6066C9.78448 27.9514 9.21224 26.6135 9.00269 25.3642C8.44657 21.963 8.95433 19.1986 10.5018 17.1595C12.0734 15.1042 14.5236 13.9275 18.0134 13.5487C18.3116 13.5165 18.6098 13.5004 18.9081 13.5004C22.011 13.5004 25.0979 14.9511 27.0242 17.2723C28.9504 14.9592 32.0454 13.5004 35.1403 13.5004C35.4385 13.5004 35.7367 13.5084 36.0349 13.5487C39.5328 13.9195 41.991 15.1042 43.5627 17.1595C45.094 19.1422 45.5937 21.8986 45.0457 25.2998L45.0376 25.3078Z" fill="white"/>
</svg>
