<svg width="24" height="24" viewBox="0 0 24 24" fill="none" xmlns="http://www.w3.org/2000/svg">
<path d="M11.7501 1.99997C9.82178 1.99997 7.93672 2.57179 6.33334 3.64314C4.72996 4.71448 3.48028 6.23722 2.74232 8.0188C2.00437 9.80038 1.81129 11.7608 2.18749 13.6521C2.5637 15.5434 3.49229 17.2807 4.85586 18.6443C6.21942 20.0078 7.9567 20.9364 9.84802 21.3126C11.7393 21.6888 13.6997 21.4957 15.4813 20.7578C17.2629 20.0198 18.7856 18.7702 19.857 17.1668C20.9283 15.5634 21.5001 13.6783 21.5001 11.75C21.4974 9.16494 20.4693 6.68658 18.6414 4.85869C16.8135 3.0308 14.3352 2.0027 11.7501 1.99997ZM11.7501 20C10.1185 20 8.5234 19.5161 7.16669 18.6096C5.80999 17.7031 4.75256 16.4146 4.12814 14.9071C3.50372 13.3996 3.34034 11.7408 3.65867 10.1405C3.977 8.54013 4.76273 7.07012 5.91652 5.91633C7.0703 4.76255 8.54031 3.97682 10.1407 3.65849C11.741 3.34016 13.3998 3.50354 14.9073 4.12796C16.4148 4.75238 17.7032 5.80981 18.6098 7.16651C19.5163 8.52322 20.0001 10.1183 20.0001 11.75C19.9977 13.9372 19.1277 16.0342 17.581 17.5809C16.0344 19.1275 13.9374 19.9975 11.7501 20Z" fill="#F7F4FF"/>
<rect x="7" y="11" width="9" height="2" rx="1" fill="#F7F4FF"/>
</svg>
