<svg width="26" height="27" viewBox="0 0 26 27" fill="none" xmlns="http://www.w3.org/2000/svg">
<path d="M12.9843 2.95032C10.8978 2.95032 8.85809 3.56905 7.12319 4.72827C5.3883 5.88749 4.03611 7.53513 3.23763 9.46284C2.43914 11.3906 2.23022 13.5118 2.63729 15.5582C3.04435 17.6047 4.04911 19.4844 5.52452 20.9598C6.99993 22.4353 8.87971 23.44 10.9262 23.8471C12.9726 24.2541 15.0938 24.0452 17.0215 23.2467C18.9492 22.4483 20.5969 21.0961 21.7561 19.3612C22.9153 17.6263 23.534 15.5866 23.534 13.5001C23.5311 10.703 22.4187 8.02135 20.4408 6.04353C18.463 4.06571 15.7814 2.95327 12.9843 2.95032ZM12.9843 22.4268C11.2188 22.4268 9.49289 21.9032 8.0249 20.9223C6.55691 19.9415 5.41276 18.5473 4.73712 16.9162C4.06148 15.285 3.8847 13.4902 4.22914 11.7585C4.57357 10.0269 5.42376 8.43635 6.67218 7.18792C7.9206 5.9395 9.51119 5.08932 11.2428 4.74488C12.9744 4.40044 14.7693 4.57722 16.4004 5.25286C18.0316 5.9285 19.4257 7.07266 20.4066 8.54065C21.3875 10.0086 21.911 11.7345 21.911 13.5001C21.9083 15.8667 20.967 18.1357 19.2935 19.8092C17.62 21.4827 15.351 22.4241 12.9843 22.4268ZM17.8534 13.5001C17.8534 13.7153 17.7679 13.9217 17.6157 14.0739C17.4635 14.2261 17.2571 14.3116 17.0419 14.3116H13.7958V17.5576C13.7958 17.7729 13.7103 17.9793 13.5581 18.1315C13.406 18.2837 13.1995 18.3692 12.9843 18.3692C12.7691 18.3692 12.5627 18.2837 12.4105 18.1315C12.2583 17.9793 12.1728 17.7729 12.1728 17.5576V14.3116H8.92672C8.71149 14.3116 8.50508 14.2261 8.35289 14.0739C8.2007 13.9217 8.1152 13.7153 8.1152 13.5001C8.1152 13.2848 8.2007 13.0784 8.35289 12.9262C8.50508 12.774 8.71149 12.6885 8.92672 12.6885H12.1728V9.44246C12.1728 9.22724 12.2583 9.02082 12.4105 8.86863C12.5627 8.71644 12.7691 8.63095 12.9843 8.63095C13.1995 8.63095 13.406 8.71644 13.5581 8.86863C13.7103 9.02082 13.7958 9.22724 13.7958 9.44246V12.6885H17.0419C17.2571 12.6885 17.4635 12.774 17.6157 12.9262C17.7679 13.0784 17.8534 13.2848 17.8534 13.5001Z" fill="#F7F4FF"/>
</svg>
