<svg width="80" height="80" viewBox="0 0 80 80" fill="none" xmlns="http://www.w3.org/2000/svg">
<circle cx="40" cy="40" r="40" fill="#3C2A80"/>
<path d="M14.2656 34.2709C14.5525 33.3934 15.1938 33.0643 16.0797 32.9378C20.4925 32.3218 24.8969 31.6722 29.2928 31.0225C30.7947 30.8031 31.8578 29.9762 32.5244 28.6093C34.1697 25.2428 35.8319 21.8847 37.4941 18.5265C37.7894 17.9275 38.1016 17.3368 38.38 16.7293C38.7091 16.0206 39.1394 15.4553 40.0169 15.4637C40.8606 15.4637 41.2741 16.0206 41.6116 16.704C43.4762 20.5009 45.4084 24.2725 47.2056 28.1031C48.1 30.01 49.4753 30.9128 51.5256 31.1743C55.7612 31.7059 59.9716 32.3725 64.1987 32.9884C64.8991 33.0897 65.4306 33.4187 65.65 34.1275C65.8778 34.8447 65.5909 35.3931 65.0931 35.8825C62.0556 38.844 59.0772 41.8562 55.9722 44.7334C54.3269 46.2606 53.8628 47.9228 54.2931 50.0912C55.1116 54.2256 55.7528 58.3937 56.47 62.5534C56.5881 63.2284 56.4362 63.8275 55.8456 64.2493C55.2466 64.6797 54.6306 64.6122 53.9978 64.2831C50.1166 62.2412 46.2269 60.2331 42.3625 58.149C40.7594 57.28 39.2575 57.2631 37.6544 58.1322C33.8237 60.1993 29.9678 62.2075 26.1034 64.2071C25.6984 64.4181 25.1669 64.5447 24.7281 64.4856C23.8506 64.3759 23.3697 63.5153 23.5384 62.5365C24.0109 59.7859 24.4834 57.0268 24.9559 54.2762C25.2513 52.5634 25.5381 50.8422 25.8419 49.1293C26.1119 47.5937 25.6478 46.3365 24.5425 45.265C22.3656 43.1556 20.1972 41.0293 18.0287 38.9115C17.1259 38.034 16.2147 37.1734 15.3372 36.279C14.9491 35.8825 14.62 35.41 14.2741 34.9797C14.2741 34.7434 14.2741 34.5072 14.2741 34.2793L14.2656 34.2709Z" fill="#F7F4FF"/>
</svg>
