<svg width="80" height="80" viewBox="0 0 80 80" fill="none" xmlns="http://www.w3.org/2000/svg">
<circle cx="40" cy="40" r="40" fill="#3C2A80"/>
<path d="M15.0588 36.6925C15.4469 35.8488 16.1134 35.5366 17.0247 35.6125C17.4719 35.6547 17.9275 35.6125 18.4169 35.6125C18.9991 32.8535 20.0453 30.3054 21.64 27.8754C21.2434 27.4957 20.83 27.116 20.4334 26.7194C19.6403 25.9263 19.6403 25.1332 20.425 24.3485C21.7075 23.0575 22.99 21.775 24.2809 20.4925C25.0234 19.75 25.8419 19.7416 26.5844 20.4757C26.9894 20.8722 27.3691 21.2941 27.7909 21.7244C30.1703 20.1719 32.71 19.1004 35.5281 18.5182C35.5281 17.9613 35.5281 17.4044 35.5281 16.8391C35.5281 15.7254 36.0934 15.1516 37.1987 15.1516C39.0466 15.1516 40.9028 15.1516 42.7506 15.1516C43.6703 15.1516 44.2947 15.7591 44.2947 16.6704C44.2947 20.2225 44.2947 23.7832 44.2947 27.3354C44.2947 27.3944 44.2778 27.4619 44.2778 27.4957C37.8316 25.8166 32.4569 27.3944 28.795 33.0729C25.8334 37.6713 25.8925 42.6072 28.9469 47.155C32.6425 52.6479 37.9497 54.1497 44.2947 52.4791V52.8925C44.2947 56.3013 44.2947 59.7101 44.2947 63.1188C44.2947 64.2832 43.7378 64.84 42.5566 64.84C40.7678 64.84 38.9875 64.84 37.1987 64.84C36.1019 64.84 35.5281 64.2663 35.5281 63.1525C35.5281 62.6041 35.5281 62.0557 35.5281 61.5747C34.1528 61.1191 32.8028 60.7563 31.5203 60.2247C30.2547 59.7016 29.0566 59.0097 27.6812 58.3179C27.3691 58.6554 26.9978 59.1026 26.5928 59.516C25.8588 60.2585 25.0403 60.25 24.2894 59.5075C22.9984 58.225 21.7159 56.9426 20.4334 55.6516C19.6488 54.8669 19.6487 54.0738 20.4419 53.2807C20.83 52.8926 21.2434 52.5297 21.5725 52.2091C20.8975 50.8675 20.2056 49.661 19.6741 48.3785C19.1509 47.1129 18.7881 45.7797 18.3241 44.3876C17.9613 44.3876 17.4887 44.3538 17.0247 44.3876C16.1219 44.4635 15.4553 44.1513 15.0588 43.3075V36.6841V36.6925Z" fill="#F7F4FF"/>
<path d="M44.2863 40.0338C44.2863 42.9532 44.2863 45.881 44.2947 48.8003C44.2947 49.1463 44.185 49.3066 43.8644 49.4416C36.8866 52.3694 29.2169 46.9188 29.6809 39.3672C30.1113 32.3641 37.4266 27.8416 43.8728 30.5753C44.2019 30.7103 44.2863 30.8875 44.2863 31.225C44.2778 34.1613 44.2863 37.0975 44.2863 40.0422V40.0338Z" fill="#F7F4FF"/>
<path d="M47.2309 34.6422V31.7229H47.7794C49.7791 31.7229 51.7703 31.7229 53.77 31.7144C54.0063 31.7144 54.2847 31.6216 54.4619 31.4782C55.3394 30.7863 56.1831 30.0522 57.0522 29.3435C57.2631 29.1747 57.3306 29.0313 57.2631 28.736C56.7738 26.5254 58.1238 24.4413 60.2922 24.0194C62.4775 23.5975 64.5109 24.9982 64.8822 27.2425C65.1184 28.6685 64.6459 29.8835 63.5406 30.8032C62.3931 31.765 61.0769 31.9929 59.6678 31.4529C59.3388 31.3263 59.1447 31.3769 58.8916 31.5879C57.8791 32.4485 56.8497 33.2922 55.8372 34.1529C55.4322 34.4988 54.9934 34.6507 54.4619 34.6507C52.2091 34.6338 49.9478 34.6507 47.695 34.6507H47.2309V34.6422Z" fill="#F7F4FF"/>
<path d="M47.2309 48.2772V45.3747C47.3913 45.3747 47.5347 45.3578 47.6697 45.3578C49.9394 45.3578 52.2091 45.3578 54.4872 45.3578C55.0019 45.3578 55.4322 45.5097 55.8203 45.8387C56.8497 46.7078 57.8875 47.56 58.9169 48.4375C59.1531 48.64 59.3472 48.6822 59.6509 48.564C61.1444 47.9734 62.8066 48.3615 63.8866 49.5259C64.975 50.6903 65.245 52.3778 64.57 53.8206C63.895 55.2634 62.4438 56.1409 60.8491 56.0734C58.5288 55.9722 56.7653 53.77 57.2294 51.4919C57.3222 51.0447 57.2294 50.7915 56.8834 50.5215C56.0734 49.8972 55.3141 49.2053 54.5125 48.5809C54.3016 48.4206 53.9978 48.3025 53.7363 48.3025C51.7534 48.2772 49.7791 48.294 47.7963 48.294H47.2225L47.2309 48.2772Z" fill="#F7F4FF"/>
<path d="M47.2309 41.4596V38.5403C47.4166 38.5403 47.5853 38.5403 47.7625 38.5403C50.8506 38.5403 53.9303 38.5403 57.0184 38.5403C57.3138 38.5403 57.4741 38.4559 57.6175 38.1859C58.5456 36.4478 60.52 35.6715 62.3425 36.3212C64.165 36.9625 65.2281 38.8356 64.8653 40.734C64.5025 42.624 62.815 43.974 60.8659 43.8812C59.4316 43.8053 58.3347 43.1134 57.6428 41.8562C57.4656 41.5271 57.2716 41.4512 56.9256 41.4512C53.8881 41.4681 50.8506 41.4512 47.8216 41.4512H47.2309V41.4596Z" fill="#F7F4FF"/>
<path d="M47.2309 21.0072V18.0879C48.2013 18.0879 49.1547 18.071 50.1081 18.0879C50.4541 18.0879 50.6481 18.0119 50.8253 17.6829C51.7366 15.9785 53.7278 15.2275 55.5334 15.8688C57.28 16.4932 58.3938 18.3241 58.09 20.096C57.7525 22.0704 56.1494 23.471 54.1919 23.4288C52.6731 23.395 51.5256 22.6863 50.8 21.3447C50.6566 21.0832 50.5047 20.9819 50.2009 20.9904C49.2306 21.0157 48.2603 20.9904 47.2394 20.9904L47.2309 21.0072Z" fill="#F7F4FF"/>
<path d="M47.2394 58.9928C48.2434 58.9928 49.2053 58.9759 50.1588 58.9928C50.4709 58.9928 50.6397 58.9168 50.7916 58.6215C51.7113 56.8834 53.7025 56.124 55.525 56.7737C57.3391 57.4234 58.4022 59.2965 58.0309 61.2034C57.6597 63.0934 55.9638 64.4349 54.0231 64.3253C52.5888 64.2409 51.4919 63.549 50.8084 62.2834C50.6397 61.9712 50.4541 61.8868 50.1334 61.8953C49.18 61.9121 48.2266 61.8953 47.2394 61.8953V58.9759V58.9928Z" fill="#F7F4FF"/>
</svg>
